<mxfile host="app.diagrams.net" modified="2022-05-21T11:43:05.728Z" agent="5.0 (Macintosh; Intel Mac OS X 10_15_7) AppleWebKit/537.36 (KHTML, like Gecko) Chrome/101.0.4951.64 Safari/537.36" etag="sszGzA-OzUDFUl-vkltG" version="18.0.7" type="github">
  <diagram id="qmRuE9SEd1rKAgiWZIl9" name="Page-1">
    <mxGraphModel dx="1773" dy="1700" grid="1" gridSize="10" guides="1" tooltips="1" connect="1" arrows="1" fold="1" page="1" pageScale="1" pageWidth="827" pageHeight="1169" math="0" shadow="1">
      <root>
        <mxCell id="0" />
        <mxCell id="1" parent="0" />
        <mxCell id="yZWfXlYMy1JbikCf-7DQ-2" value="&lt;font style=&quot;font-size: 18px;&quot;&gt;&lt;font style=&quot;font-size: 18px;&quot;&gt;опт&lt;/font&gt;&lt;/font&gt;" style="rounded=1;whiteSpace=wrap;html=1;fillColor=#fff2cc;strokeColor=#d6b656;shadow=0;" parent="1" vertex="1">
          <mxGeometry x="640" y="340" width="120" height="60" as="geometry" />
        </mxCell>
        <mxCell id="yZWfXlYMy1JbikCf-7DQ-3" value="СКЛАД" style="rounded=1;whiteSpace=wrap;html=1;shadow=0;fontSize=18;fillColor=#e1d5e7;strokeColor=#9673a6;" parent="1" vertex="1">
          <mxGeometry x="360" y="780" width="110" height="50" as="geometry" />
        </mxCell>
        <mxCell id="yZWfXlYMy1JbikCf-7DQ-4" value="бух учёт" style="ellipse;shape=cloud;whiteSpace=wrap;html=1;shadow=0;fontSize=18;fillColor=none;" parent="1" vertex="1">
          <mxGeometry x="280" y="-20" width="120" height="80" as="geometry" />
        </mxCell>
        <mxCell id="yZWfXlYMy1JbikCf-7DQ-5" value="розница" style="rounded=1;whiteSpace=wrap;html=1;shadow=0;fontSize=18;fillColor=#bac8d3;strokeColor=#23445d;" parent="1" vertex="1">
          <mxGeometry x="60" y="340" width="120" height="60" as="geometry" />
        </mxCell>
        <mxCell id="yZWfXlYMy1JbikCf-7DQ-68" style="edgeStyle=orthogonalEdgeStyle;rounded=0;orthogonalLoop=1;jettySize=auto;html=1;exitX=0.5;exitY=1;exitDx=0;exitDy=0;fontSize=18;entryX=0;entryY=0;entryDx=50;entryDy=0;entryPerimeter=0;" parent="1" source="yZWfXlYMy1JbikCf-7DQ-6" target="yZWfXlYMy1JbikCf-7DQ-62" edge="1">
          <mxGeometry relative="1" as="geometry">
            <mxPoint x="394.55555555555543" y="180" as="targetPoint" />
          </mxGeometry>
        </mxCell>
        <mxCell id="yZWfXlYMy1JbikCf-7DQ-6" value="ПРОДАЖИ" style="rounded=1;whiteSpace=wrap;html=1;shadow=0;fontSize=18;fillColor=#d0cee2;strokeColor=#56517e;" parent="1" vertex="1">
          <mxGeometry x="280" y="110" width="120" height="40" as="geometry" />
        </mxCell>
        <mxCell id="O2xrhRhTO9CoQvw1CNzs-5" style="edgeStyle=orthogonalEdgeStyle;rounded=0;orthogonalLoop=1;jettySize=auto;html=1;exitX=0;exitY=0;exitDx=90;exitDy=50;exitPerimeter=0;entryX=0;entryY=0.25;entryDx=0;entryDy=0;" edge="1" parent="1" source="yZWfXlYMy1JbikCf-7DQ-9" target="yZWfXlYMy1JbikCf-7DQ-2">
          <mxGeometry relative="1" as="geometry" />
        </mxCell>
        <mxCell id="yZWfXlYMy1JbikCf-7DQ-9" value="1&lt;br&gt;price" style="shape=note;whiteSpace=wrap;html=1;backgroundOutline=1;darkOpacity=0.05;shadow=1;fontSize=18;sketch=1;" parent="1" vertex="1">
          <mxGeometry x="490" y="280" width="100" height="70" as="geometry" />
        </mxCell>
        <mxCell id="yZWfXlYMy1JbikCf-7DQ-10" value="vk" style="shape=process;whiteSpace=wrap;html=1;backgroundOutline=1;shadow=1;sketch=1;fontSize=18;" parent="1" vertex="1">
          <mxGeometry x="-60" y="605" width="90" height="50" as="geometry" />
        </mxCell>
        <mxCell id="yZWfXlYMy1JbikCf-7DQ-47" value="ЗАКУПКА" style="rounded=1;whiteSpace=wrap;html=1;shadow=0;fontSize=18;fillColor=#d0cee2;strokeColor=#56517e;" parent="1" vertex="1">
          <mxGeometry x="420" y="-90" width="120" height="40" as="geometry" />
        </mxCell>
        <mxCell id="yZWfXlYMy1JbikCf-7DQ-73" style="edgeStyle=orthogonalEdgeStyle;rounded=0;orthogonalLoop=1;jettySize=auto;html=1;exitX=1;exitY=1;exitDx=0;exitDy=0;exitPerimeter=0;fontSize=18;entryX=0;entryY=0;entryDx=35;entryDy=0;entryPerimeter=0;" parent="1" source="yZWfXlYMy1JbikCf-7DQ-62" edge="1" target="yZWfXlYMy1JbikCf-7DQ-9">
          <mxGeometry relative="1" as="geometry">
            <mxPoint x="404.55555555555543" y="330" as="targetPoint" />
            <Array as="points">
              <mxPoint x="465" y="260" />
              <mxPoint x="525" y="260" />
            </Array>
          </mxGeometry>
        </mxCell>
        <mxCell id="O2xrhRhTO9CoQvw1CNzs-9" style="edgeStyle=orthogonalEdgeStyle;rounded=0;orthogonalLoop=1;jettySize=auto;html=1;exitX=0.5;exitY=1;exitDx=0;exitDy=0;exitPerimeter=0;" edge="1" parent="1" source="yZWfXlYMy1JbikCf-7DQ-62" target="yZWfXlYMy1JbikCf-7DQ-63">
          <mxGeometry relative="1" as="geometry" />
        </mxCell>
        <mxCell id="O2xrhRhTO9CoQvw1CNzs-10" style="edgeStyle=orthogonalEdgeStyle;rounded=0;orthogonalLoop=1;jettySize=auto;html=1;exitX=0;exitY=1;exitDx=0;exitDy=0;exitPerimeter=0;entryX=0.5;entryY=0;entryDx=0;entryDy=0;" edge="1" parent="1" source="yZWfXlYMy1JbikCf-7DQ-62" target="yZWfXlYMy1JbikCf-7DQ-64">
          <mxGeometry relative="1" as="geometry">
            <Array as="points">
              <mxPoint x="285" y="250" />
            </Array>
          </mxGeometry>
        </mxCell>
        <mxCell id="yZWfXlYMy1JbikCf-7DQ-62" value="photo&lt;br&gt;&amp;amp;&lt;br&gt;content" style="shape=note;whiteSpace=wrap;html=1;backgroundOutline=1;darkOpacity=0.05;shadow=1;fontSize=18;sketch=1;" parent="1" vertex="1">
          <mxGeometry x="335" y="180" width="130" height="70" as="geometry" />
        </mxCell>
        <mxCell id="yZWfXlYMy1JbikCf-7DQ-66" style="edgeStyle=orthogonalEdgeStyle;rounded=0;orthogonalLoop=1;jettySize=auto;html=1;exitX=1;exitY=0.5;exitDx=0;exitDy=0;fontSize=18;entryX=0.008;entryY=0.867;entryDx=0;entryDy=0;entryPerimeter=0;" parent="1" source="yZWfXlYMy1JbikCf-7DQ-63" target="yZWfXlYMy1JbikCf-7DQ-2" edge="1">
          <mxGeometry relative="1" as="geometry">
            <Array as="points">
              <mxPoint x="480" y="320" />
              <mxPoint x="480" y="392" />
            </Array>
          </mxGeometry>
        </mxCell>
        <mxCell id="yZWfXlYMy1JbikCf-7DQ-63" value="3&lt;br&gt;website" style="shape=process;whiteSpace=wrap;html=1;backgroundOutline=1;shadow=1;sketch=1;fontSize=18;" parent="1" vertex="1">
          <mxGeometry x="340" y="280" width="110" height="70" as="geometry" />
        </mxCell>
        <mxCell id="yZWfXlYMy1JbikCf-7DQ-65" style="edgeStyle=orthogonalEdgeStyle;rounded=0;orthogonalLoop=1;jettySize=auto;html=1;exitX=1;exitY=1;exitDx=0;exitDy=0;entryX=0;entryY=0.5;entryDx=0;entryDy=0;fontSize=18;" parent="1" source="yZWfXlYMy1JbikCf-7DQ-64" target="yZWfXlYMy1JbikCf-7DQ-2" edge="1">
          <mxGeometry relative="1" as="geometry" />
        </mxCell>
        <mxCell id="yZWfXlYMy1JbikCf-7DQ-64" value="2&lt;br&gt;social" style="whiteSpace=wrap;html=1;aspect=fixed;shadow=1;sketch=1;fontSize=18;" parent="1" vertex="1">
          <mxGeometry x="250" y="280" width="70" height="70" as="geometry" />
        </mxCell>
        <mxCell id="O2xrhRhTO9CoQvw1CNzs-1" value="avito.ru" style="shape=process;whiteSpace=wrap;html=1;backgroundOutline=1;" vertex="1" parent="1">
          <mxGeometry x="-240" y="595" width="120" height="60" as="geometry" />
        </mxCell>
        <mxCell id="O2xrhRhTO9CoQvw1CNzs-6" value="" style="endArrow=classic;startArrow=classic;html=1;rounded=0;entryX=0.55;entryY=0.95;entryDx=0;entryDy=0;entryPerimeter=0;exitX=0.25;exitY=0;exitDx=0;exitDy=0;" edge="1" parent="1" source="yZWfXlYMy1JbikCf-7DQ-6" target="yZWfXlYMy1JbikCf-7DQ-4">
          <mxGeometry width="50" height="50" relative="1" as="geometry">
            <mxPoint x="350" y="170" as="sourcePoint" />
            <mxPoint x="330" y="160" as="targetPoint" />
            <Array as="points" />
          </mxGeometry>
        </mxCell>
        <mxCell id="O2xrhRhTO9CoQvw1CNzs-7" value="" style="endArrow=classic;startArrow=classic;html=1;rounded=0;entryX=0.875;entryY=0.5;entryDx=0;entryDy=0;entryPerimeter=0;exitX=0;exitY=1;exitDx=0;exitDy=0;" edge="1" parent="1" source="yZWfXlYMy1JbikCf-7DQ-47" target="yZWfXlYMy1JbikCf-7DQ-4">
          <mxGeometry width="50" height="50" relative="1" as="geometry">
            <mxPoint x="465" y="135" as="sourcePoint" />
            <mxPoint x="555.5999999999999" y="121.60000000000002" as="targetPoint" />
            <Array as="points" />
          </mxGeometry>
        </mxCell>
        <mxCell id="O2xrhRhTO9CoQvw1CNzs-28" value="мин 25% +" style="edgeLabel;html=1;align=center;verticalAlign=middle;resizable=0;points=[];" vertex="1" connectable="0" parent="O2xrhRhTO9CoQvw1CNzs-7">
          <mxGeometry x="0.0773" y="-2" relative="1" as="geometry">
            <mxPoint as="offset" />
          </mxGeometry>
        </mxCell>
        <mxCell id="O2xrhRhTO9CoQvw1CNzs-26" style="edgeStyle=orthogonalEdgeStyle;rounded=0;orthogonalLoop=1;jettySize=auto;html=1;exitX=0.8;exitY=0.8;exitDx=0;exitDy=0;exitPerimeter=0;entryX=0;entryY=0;entryDx=0;entryDy=0;" edge="1" parent="1" source="O2xrhRhTO9CoQvw1CNzs-16" target="yZWfXlYMy1JbikCf-7DQ-47">
          <mxGeometry relative="1" as="geometry" />
        </mxCell>
        <mxCell id="O2xrhRhTO9CoQvw1CNzs-27" style="edgeStyle=orthogonalEdgeStyle;rounded=0;orthogonalLoop=1;jettySize=auto;html=1;exitX=0.07;exitY=0.4;exitDx=0;exitDy=0;exitPerimeter=0;entryX=0.45;entryY=-0.1;entryDx=0;entryDy=0;entryPerimeter=0;" edge="1" parent="1" source="O2xrhRhTO9CoQvw1CNzs-16" target="O2xrhRhTO9CoQvw1CNzs-23">
          <mxGeometry relative="1" as="geometry" />
        </mxCell>
        <mxCell id="O2xrhRhTO9CoQvw1CNzs-16" value="новые&lt;br&gt;позиции" style="ellipse;shape=cloud;whiteSpace=wrap;html=1;" vertex="1" parent="1">
          <mxGeometry x="280" y="-200" width="120" height="80" as="geometry" />
        </mxCell>
        <mxCell id="O2xrhRhTO9CoQvw1CNzs-19" value="анализ" style="ellipse;shape=cloud;whiteSpace=wrap;html=1;" vertex="1" parent="1">
          <mxGeometry x="400" y="-250" width="120" height="80" as="geometry" />
        </mxCell>
        <mxCell id="O2xrhRhTO9CoQvw1CNzs-21" value="" style="endArrow=classic;startArrow=classic;html=1;rounded=0;entryX=0.4;entryY=0.963;entryDx=0;entryDy=0;entryPerimeter=0;exitX=0.95;exitY=0.613;exitDx=0;exitDy=0;exitPerimeter=0;" edge="1" parent="1" source="O2xrhRhTO9CoQvw1CNzs-16" target="O2xrhRhTO9CoQvw1CNzs-19">
          <mxGeometry width="50" height="50" relative="1" as="geometry">
            <mxPoint x="506" y="-30" as="sourcePoint" />
            <mxPoint x="556" y="-80" as="targetPoint" />
            <Array as="points">
              <mxPoint x="426" y="-160" />
            </Array>
          </mxGeometry>
        </mxCell>
        <mxCell id="O2xrhRhTO9CoQvw1CNzs-29" style="edgeStyle=orthogonalEdgeStyle;rounded=0;orthogonalLoop=1;jettySize=auto;html=1;exitX=0.75;exitY=1;exitDx=0;exitDy=0;entryX=0.067;entryY=0.525;entryDx=0;entryDy=0;entryPerimeter=0;" edge="1" parent="1" source="O2xrhRhTO9CoQvw1CNzs-23" target="yZWfXlYMy1JbikCf-7DQ-4">
          <mxGeometry relative="1" as="geometry">
            <Array as="points">
              <mxPoint x="220" y="32" />
            </Array>
          </mxGeometry>
        </mxCell>
        <mxCell id="O2xrhRhTO9CoQvw1CNzs-30" value="Text" style="edgeLabel;html=1;align=center;verticalAlign=middle;resizable=0;points=[];" vertex="1" connectable="0" parent="O2xrhRhTO9CoQvw1CNzs-29">
          <mxGeometry x="-0.3848" y="1" relative="1" as="geometry">
            <mxPoint as="offset" />
          </mxGeometry>
        </mxCell>
        <mxCell id="O2xrhRhTO9CoQvw1CNzs-23" value="произ-во" style="rounded=1;whiteSpace=wrap;html=1;shadow=0;fontSize=18;fillColor=#d0cee2;strokeColor=#56517e;" vertex="1" parent="1">
          <mxGeometry x="130" y="-90" width="120" height="40" as="geometry" />
        </mxCell>
      </root>
    </mxGraphModel>
  </diagram>
</mxfile>
